<mxfile host="app.diagrams.net" modified="2023-08-10T11:03:15.959Z" agent="Mozilla/5.0 (Windows NT 10.0; Win64; x64) AppleWebKit/537.36 (KHTML, like Gecko) Chrome/115.0.0.0 Safari/537.36" etag="1QFUNKD4usZYCa-tPgZj" version="21.6.7" type="device">
  <diagram id="R2lEEEUBdFMjLlhIrx00" name="Page-1">
    <mxGraphModel dx="1430" dy="771" grid="1" gridSize="10" guides="1" tooltips="1" connect="1" arrows="1" fold="1" page="1" pageScale="1" pageWidth="850" pageHeight="1100" math="0" shadow="0" extFonts="Permanent Marker^https://fonts.googleapis.com/css?family=Permanent+Marker">
      <root>
        <mxCell id="0" />
        <mxCell id="1" parent="0" />
        <mxCell id="1RHXCjrgZ9Zzns4yL4BW-1" value="&lt;i&gt;&amp;lt;abstract&amp;gt;&lt;/i&gt;&lt;br&gt;User" style="swimlane;childLayout=stackLayout;horizontal=1;startSize=50;horizontalStack=0;rounded=1;fontSize=14;fontStyle=0;strokeWidth=2;resizeParent=0;resizeLast=1;shadow=0;dashed=0;align=center;arcSize=4;whiteSpace=wrap;html=1;" vertex="1" parent="1">
          <mxGeometry x="230" y="110" width="160" height="120" as="geometry" />
        </mxCell>
        <mxCell id="1RHXCjrgZ9Zzns4yL4BW-2" value="+email&lt;br&gt;-password&lt;br&gt;+firstName&lt;br&gt;+lastName" style="align=left;strokeColor=none;fillColor=none;spacingLeft=4;fontSize=12;verticalAlign=top;resizable=0;rotatable=0;part=1;html=1;" vertex="1" parent="1RHXCjrgZ9Zzns4yL4BW-1">
          <mxGeometry y="50" width="160" height="70" as="geometry" />
        </mxCell>
        <mxCell id="1RHXCjrgZ9Zzns4yL4BW-3" value="Participant" style="swimlane;childLayout=stackLayout;horizontal=1;startSize=50;horizontalStack=0;rounded=1;fontSize=14;fontStyle=0;strokeWidth=2;resizeParent=0;resizeLast=1;shadow=0;dashed=0;align=center;arcSize=4;whiteSpace=wrap;html=1;" vertex="1" parent="1">
          <mxGeometry x="370" y="320" width="160" height="120" as="geometry" />
        </mxCell>
        <mxCell id="1RHXCjrgZ9Zzns4yL4BW-5" value="Organizer" style="swimlane;childLayout=stackLayout;horizontal=1;startSize=50;horizontalStack=0;rounded=1;fontSize=14;fontStyle=0;strokeWidth=2;resizeParent=0;resizeLast=1;shadow=0;dashed=0;align=center;arcSize=4;whiteSpace=wrap;html=1;" vertex="1" parent="1">
          <mxGeometry x="100" y="320" width="160" height="120" as="geometry" />
        </mxCell>
        <mxCell id="1RHXCjrgZ9Zzns4yL4BW-7" value="" style="endArrow=classic;html=1;rounded=0;entryX=0.223;entryY=0.999;entryDx=0;entryDy=0;entryPerimeter=0;exitX=0.5;exitY=0;exitDx=0;exitDy=0;" edge="1" parent="1" source="1RHXCjrgZ9Zzns4yL4BW-5" target="1RHXCjrgZ9Zzns4yL4BW-2">
          <mxGeometry width="50" height="50" relative="1" as="geometry">
            <mxPoint x="390" y="390" as="sourcePoint" />
            <mxPoint x="440" y="340" as="targetPoint" />
            <Array as="points" />
          </mxGeometry>
        </mxCell>
        <mxCell id="1RHXCjrgZ9Zzns4yL4BW-8" value="" style="endArrow=classic;html=1;rounded=0;entryX=0.631;entryY=1.012;entryDx=0;entryDy=0;entryPerimeter=0;exitX=0.25;exitY=0;exitDx=0;exitDy=0;" edge="1" parent="1" source="1RHXCjrgZ9Zzns4yL4BW-3" target="1RHXCjrgZ9Zzns4yL4BW-2">
          <mxGeometry width="50" height="50" relative="1" as="geometry">
            <mxPoint x="390" y="390" as="sourcePoint" />
            <mxPoint x="440" y="340" as="targetPoint" />
          </mxGeometry>
        </mxCell>
        <mxCell id="1RHXCjrgZ9Zzns4yL4BW-9" value="Ticket" style="swimlane;childLayout=stackLayout;horizontal=1;startSize=50;horizontalStack=0;rounded=1;fontSize=14;fontStyle=0;strokeWidth=2;resizeParent=0;resizeLast=1;shadow=0;dashed=0;align=center;arcSize=4;whiteSpace=wrap;html=1;" vertex="1" parent="1">
          <mxGeometry x="200" y="650" width="160" height="120" as="geometry" />
        </mxCell>
        <mxCell id="1RHXCjrgZ9Zzns4yL4BW-10" value="+id&lt;br&gt;+certificate" style="align=left;strokeColor=none;fillColor=none;spacingLeft=4;fontSize=12;verticalAlign=top;resizable=0;rotatable=0;part=1;html=1;" vertex="1" parent="1RHXCjrgZ9Zzns4yL4BW-9">
          <mxGeometry y="50" width="160" height="70" as="geometry" />
        </mxCell>
        <mxCell id="1RHXCjrgZ9Zzns4yL4BW-11" value="Event" style="swimlane;childLayout=stackLayout;horizontal=1;startSize=50;horizontalStack=0;rounded=1;fontSize=14;fontStyle=0;strokeWidth=2;resizeParent=0;resizeLast=1;shadow=0;dashed=0;align=center;arcSize=4;whiteSpace=wrap;html=1;" vertex="1" parent="1">
          <mxGeometry x="550" y="650" width="160" height="120" as="geometry" />
        </mxCell>
        <mxCell id="1RHXCjrgZ9Zzns4yL4BW-12" value="+id&lt;br&gt;+name&lt;br&gt;+start: DateTime&lt;br&gt;+location" style="align=left;strokeColor=none;fillColor=none;spacingLeft=4;fontSize=12;verticalAlign=top;resizable=0;rotatable=0;part=1;html=1;" vertex="1" parent="1RHXCjrgZ9Zzns4yL4BW-11">
          <mxGeometry y="50" width="160" height="70" as="geometry" />
        </mxCell>
        <mxCell id="1RHXCjrgZ9Zzns4yL4BW-17" value="participates" style="rhombus;whiteSpace=wrap;html=1;" vertex="1" parent="1">
          <mxGeometry x="415" y="518" width="70" height="65" as="geometry" />
        </mxCell>
        <mxCell id="1RHXCjrgZ9Zzns4yL4BW-18" value="" style="endArrow=none;html=1;rounded=0;exitX=0.962;exitY=-0.006;exitDx=0;exitDy=0;exitPerimeter=0;" edge="1" parent="1" source="1RHXCjrgZ9Zzns4yL4BW-9" target="1RHXCjrgZ9Zzns4yL4BW-17">
          <mxGeometry width="50" height="50" relative="1" as="geometry">
            <mxPoint x="360" y="650" as="sourcePoint" />
            <mxPoint x="440" y="480" as="targetPoint" />
          </mxGeometry>
        </mxCell>
        <mxCell id="1RHXCjrgZ9Zzns4yL4BW-23" value="0..1" style="edgeLabel;html=1;align=center;verticalAlign=middle;resizable=0;points=[];" vertex="1" connectable="0" parent="1RHXCjrgZ9Zzns4yL4BW-18">
          <mxGeometry x="-0.735" y="2" relative="1" as="geometry">
            <mxPoint as="offset" />
          </mxGeometry>
        </mxCell>
        <mxCell id="1RHXCjrgZ9Zzns4yL4BW-19" value="" style="endArrow=none;html=1;rounded=0;entryX=0.537;entryY=1.007;entryDx=0;entryDy=0;exitX=0.5;exitY=0;exitDx=0;exitDy=0;entryPerimeter=0;" edge="1" parent="1" source="1RHXCjrgZ9Zzns4yL4BW-17">
          <mxGeometry width="50" height="50" relative="1" as="geometry">
            <mxPoint x="390" y="530" as="sourcePoint" />
            <mxPoint x="455.91999999999985" y="440.49" as="targetPoint" />
          </mxGeometry>
        </mxCell>
        <mxCell id="1RHXCjrgZ9Zzns4yL4BW-21" value="1" style="edgeLabel;html=1;align=center;verticalAlign=middle;resizable=0;points=[];" vertex="1" connectable="0" parent="1RHXCjrgZ9Zzns4yL4BW-19">
          <mxGeometry x="0.6244" relative="1" as="geometry">
            <mxPoint as="offset" />
          </mxGeometry>
        </mxCell>
        <mxCell id="1RHXCjrgZ9Zzns4yL4BW-20" value="" style="endArrow=none;html=1;rounded=0;entryX=0.015;entryY=0.04;entryDx=0;entryDy=0;entryPerimeter=0;" edge="1" parent="1" source="1RHXCjrgZ9Zzns4yL4BW-17" target="1RHXCjrgZ9Zzns4yL4BW-11">
          <mxGeometry width="50" height="50" relative="1" as="geometry">
            <mxPoint x="390" y="530" as="sourcePoint" />
            <mxPoint x="440" y="480" as="targetPoint" />
          </mxGeometry>
        </mxCell>
        <mxCell id="1RHXCjrgZ9Zzns4yL4BW-22" value="1" style="edgeLabel;html=1;align=center;verticalAlign=middle;resizable=0;points=[];" vertex="1" connectable="0" parent="1RHXCjrgZ9Zzns4yL4BW-20">
          <mxGeometry x="0.6211" y="2" relative="1" as="geometry">
            <mxPoint y="1" as="offset" />
          </mxGeometry>
        </mxCell>
        <mxCell id="1RHXCjrgZ9Zzns4yL4BW-26" value="cart" style="rhombus;whiteSpace=wrap;html=1;" vertex="1" parent="1">
          <mxGeometry x="605" y="500" width="50" height="50" as="geometry" />
        </mxCell>
        <mxCell id="1RHXCjrgZ9Zzns4yL4BW-27" value="" style="endArrow=none;html=1;rounded=0;entryX=1;entryY=1;entryDx=0;entryDy=0;exitX=0.5;exitY=0;exitDx=0;exitDy=0;" edge="1" parent="1" source="1RHXCjrgZ9Zzns4yL4BW-26" target="1RHXCjrgZ9Zzns4yL4BW-3">
          <mxGeometry width="50" height="50" relative="1" as="geometry">
            <mxPoint x="390" y="530" as="sourcePoint" />
            <mxPoint x="440" y="480" as="targetPoint" />
          </mxGeometry>
        </mxCell>
        <mxCell id="1RHXCjrgZ9Zzns4yL4BW-32" value="1" style="edgeLabel;html=1;align=center;verticalAlign=middle;resizable=0;points=[];" vertex="1" connectable="0" parent="1RHXCjrgZ9Zzns4yL4BW-27">
          <mxGeometry x="0.7576" y="-1" relative="1" as="geometry">
            <mxPoint as="offset" />
          </mxGeometry>
        </mxCell>
        <mxCell id="1RHXCjrgZ9Zzns4yL4BW-29" value="" style="endArrow=none;html=1;rounded=0;entryX=0.5;entryY=1;entryDx=0;entryDy=0;exitX=0.5;exitY=0;exitDx=0;exitDy=0;" edge="1" parent="1" source="1RHXCjrgZ9Zzns4yL4BW-11" target="1RHXCjrgZ9Zzns4yL4BW-26">
          <mxGeometry width="50" height="50" relative="1" as="geometry">
            <mxPoint x="390" y="530" as="sourcePoint" />
            <mxPoint x="440" y="480" as="targetPoint" />
          </mxGeometry>
        </mxCell>
        <mxCell id="1RHXCjrgZ9Zzns4yL4BW-31" value="1" style="edgeLabel;html=1;align=center;verticalAlign=middle;resizable=0;points=[];" vertex="1" connectable="0" parent="1RHXCjrgZ9Zzns4yL4BW-29">
          <mxGeometry x="-0.6168" y="1" relative="1" as="geometry">
            <mxPoint as="offset" />
          </mxGeometry>
        </mxCell>
        <mxCell id="1RHXCjrgZ9Zzns4yL4BW-30" value="" style="endArrow=none;html=1;rounded=0;exitX=1.005;exitY=0.331;exitDx=0;exitDy=0;exitPerimeter=0;entryX=0;entryY=0.5;entryDx=0;entryDy=0;" edge="1" parent="1" source="1RHXCjrgZ9Zzns4yL4BW-9" target="1RHXCjrgZ9Zzns4yL4BW-26">
          <mxGeometry width="50" height="50" relative="1" as="geometry">
            <mxPoint x="390" y="530" as="sourcePoint" />
            <mxPoint x="440" y="480" as="targetPoint" />
          </mxGeometry>
        </mxCell>
        <mxCell id="1RHXCjrgZ9Zzns4yL4BW-33" value="0..1" style="edgeLabel;html=1;align=center;verticalAlign=middle;resizable=0;points=[];" vertex="1" connectable="0" parent="1RHXCjrgZ9Zzns4yL4BW-30">
          <mxGeometry x="-0.8275" y="1" relative="1" as="geometry">
            <mxPoint as="offset" />
          </mxGeometry>
        </mxCell>
      </root>
    </mxGraphModel>
  </diagram>
</mxfile>
